PathFileType	4	(x/y/z)	S01_M20_T12.trc
DataRate	CameraRate	NumFrames	NumMarkers	Units	OrigDataRate	OrigDataStartFrame	OrigNumFrames
240	240	7	51	mm	240	271	432
Frame#	Time	Sternum			R.Acromium			L.Acromium			Top.Head			R.ASIS			L.ASIS			R.PSIS			L.PSIS			R.Great.Tro			L.Great.Tro			R.Iliac.Crest			L.Iliac.Crest			V.Sacral			R.Thigh.Upper.Post			R.Thigh.Lower.Ant			R.Thigh.Lower.Post			R.Thigh.Upper.Ant			R.Knee.Lat			R.Knee.Med			R.Shank.Upper.Post			R.Shank.Lower.Ant			R.Shank.Lower.Post			R.Shank.Upper.Ant			R.Ankle.Lat			R.Ankle.Med			R.Heel.Upper			R.Heel.Med			R.Heel.Lat			R.Toe.Lat			R.Toe.Med			R.Toe.Tip			L.Thigh.Upper.Post			L.Thigh.Lower.Ant			L.Thigh.Lower.Post			L.Thigh.Upper.Ant			L.Knee.Lat			L.Knee.Med			L.Shank.Upper.Post			L.Shank.Lower.Ant			L.Shank.Lower.Post			L.Shank.Upper.Ant			L.Ankle.Lat			L.Ankle.Med			L.Heel.Upper			L.Heel.Med			L.Heel.Lat			L.Toe.Lat			L.Toe.Med			L.Toe.Tip			Cervical.Spine			Back			
		X1	Y1	Z1	X2	Y2	Z2	X3	Y3	Z3	X4	Y4	Z4	X5	Y5	Z5	X6	Y6	Z6	X7	Y7	Z7	X8	Y8	Z8	X9	Y9	Z9	X10	Y10	Z10	X11	Y11	Z11	X12	Y12	Z12	X13	Y13	Z13	X14	Y14	Z14	X15	Y15	Z15	X16	Y16	Z16	X17	Y17	Z17	X18	Y18	Z18	X19	Y19	Z19	X20	Y20	Z20	X21	Y21	Z21	X22	Y22	Z22	X23	Y23	Z23	X24	Y24	Z24	X25	Y25	Z25	X26	Y26	Z26	X27	Y27	Z27	X28	Y28	Z28	X29	Y29	Z29	X30	Y30	Z30	X31	Y31	Z31	X32	Y32	Z32	X33	Y33	Z33	X34	Y34	Z34	X35	Y35	Z35	X36	Y36	Z36	X37	Y37	Z37	X38	Y38	Z38	X39	Y39	Z39	X40	Y40	Z40	X41	Y41	Z41	X42	Y42	Z42	X43	Y43	Z43	X44	Y44	Z44	X45	Y45	Z45	X46	Y46	Z46	X47	Y47	Z47	X48	Y48	Z48	X49	Y49	Z49	X50	Y50	Z50	X51	Y51	Z51	

271	1.125	158.02	1233.2	320.81	52.481	1478.3	506.85	30.664	1503	176.43	99.891	1802.9	334.64	99.156	976.6	478.83	121.74	987.46	210.52	-130.83	1029	358.35	-121.8	1021.6	255.96	0.77635	931.75	547.67	32.966	939.57	119.48	6.6572	1073.9	537.56	13.021	1067.6	127.49	-139.28	988.71	304.48	-108.73	652.76	512.19	-64.02	562.76	489.68	-132.59	568.81	492.4	-35.882	647.37	510.71	-144.68	499.93	487.05	-119.44	498.77	342.7	-278.15	392.6	495.69	-265.51	289.01	457.81	-317.36	334.56	481.51	-229.45	350.95	477.34	-419.58	149.79	439.54	-380.67	149.61	349.01	-491.99	149.07	375.9	-485.98	119.79	344.33	-494.19	114.44	408.37	-327.94	34.945	470.81	-290.12	42.683	347.8	-225.62	45.165	403.73	110.2	659.24	151.68	215.26	627.92	157.38	153.22	582.32	175.31	162.67	704.22	133.06	236.78	527.51	169.9	246.79	539.88	312.28	237.63	381.16	153.21	325.6	318.83	181.06	265.68	308.49	158.48	299.31	390.68	172.01	331.01	104.37	194.29	350.21	123.77	292.64	271.85	57.489	243.16	291.78	38.107	277.41	288.68	35.754	213.84	488.26	87.105	181.01	509.27	109	301.25	564.91	138.87	248.38	-42.7	1552.2	351.58	-140.99	1241.5	351.94
272	1.1292	164.64	1233	319.95	58.763	1478.2	505.61	37.072	1502.6	175.08	105.8	1802.8	332.98	105.53	976.19	478.38	128.23	987.21	210.13	-124.31	1028.7	357.85	-115.29	1021.4	255.42	7.1786	931.31	547.25	39.64	939.4	119.09	13.529	1073.8	537.01	19.77	1067.3	126.8	-132.75	988.45	303.92	-102.49	652.48	512.21	-57.7	562.39	490.28	-126.27	568.44	492.72	-29.637	647.1	510.99	-138.46	499.57	487.63	-112.59	497.87	343.39	-273.05	393.7	496	-261.55	289.94	458.58	-312.86	336.11	481.97	-224.83	351.49	477.99	-416.99	152.22	440.3	-377.85	151.62	349.9	-489.11	152.96	376.6	-483.61	123.82	344.78	-492.07	118.17	408.79	-327.66	35.175	470.88	-289.94	42.853	347.97	-225.33	44.983	403.7	117.12	659.31	151.52	222.13	628.02	157.45	160.1	582.38	175.25	169.52	704.3	133.09	243.85	527.68	170.1	252.96	540.12	312.35	243.68	381.46	153.12	330.79	318.16	181.45	270.91	308.5	158.46	305.3	390.3	172.39	333.31	103.79	194.26	352.59	122.72	292.75	273.09	58.288	243.01	292.41	38.517	277.3	289.47	36.116	213.79	490.19	83.551	181.45	511.41	104.97	301.71	567.83	133.7	249.01	-36.45	1552	350.17	-134.54	1241.2	351.04
273	1.1333	171.25	1232.9	319.08	65.076	1478.3	504.36	43.493	1502.2	173.73	111.72	1802.8	331.29	111.91	975.87	477.9	134.7	987.05	209.73	-117.78	1028.5	357.38	-108.82	1021.3	254.91	13.615	930.93	546.83	46.254	939.34	118.7	20.457	1073.8	536.46	26.494	1067.1	126.11	-126.22	988.27	303.39	-96.116	652.19	512.26	-51.191	562.05	490.93	-119.77	568.06	493.08	-23.244	646.87	511.28	-132.02	499.2	488.27	-105.54	496.94	344.13	-267.72	394.82	496.38	-257.37	290.9	459.4	-308.13	337.69	482.48	-219.98	352.03	478.7	-414.2	154.75	441.09	-374.84	153.72	350.83	-485.99	157.02	377.35	-481.02	128.03	345.27	-489.77	122.08	409.24	-327.36	35.457	470.95	-289.72	43.082	348.14	-225.01	44.779	403.67	124.08	659.49	151.29	229.05	628.27	157.46	167.04	582.56	175.09	176.4	704.52	133.06	250.97	527.97	170.22	259.19	540.48	312.35	249.69	381.86	152.95	335.93	317.59	181.74	276.1	308.6	158.35	311.26	390	172.68	335.52	103.31	194.17	354.91	121.8	292.77	274.31	59.135	242.81	293.01	39.005	277.15	290.23	36.529	213.72	492	80.116	181.77	513.46	101.1	302.04	570.6	128.68	249.48	-30.181	1551.8	348.76	-128.08	1240.9	350.15
274	1.1375	177.85	1232.9	318.2	71.421	1478.5	503.1	49.922	1501.9	172.39	117.66	1802.8	329.59	118.28	975.62	477.39	141.13	986.98	209.31	-111.26	1028.4	356.95	-102.38	1021.3	254.43	20.081	930.6	546.41	52.799	939.37	118.32	27.435	1073.9	535.92	33.183	1067	125.45	-119.72	988.17	302.89	-89.589	651.89	512.34	-44.489	561.72	491.62	-113.07	567.66	493.49	-16.7	646.66	511.6	-125.36	498.81	488.98	-98.266	495.99	344.95	-262.14	395.95	496.82	-252.99	291.88	460.26	-303.18	339.3	483.06	-214.91	352.58	479.47	-411.22	157.37	441.91	-371.65	155.89	351.81	-482.63	161.26	378.14	-478.22	132.43	345.79	-487.25	126.19	409.72	-327.01	35.802	471.03	-289.45	43.381	348.32	-224.66	44.55	403.65	131.06	659.79	150.99	236	628.65	157.4	174.02	582.84	174.86	183.28	704.85	132.97	258.11	528.37	170.29	265.52	540.97	312.28	255.65	382.34	152.71	341.01	317.09	181.93	281.21	308.79	158.17	317.16	389.78	172.87	337.63	102.9	194.02	357.16	121.02	292.72	275.49	60.014	242.59	293.58	39.554	276.98	290.96	36.981	213.62	493.7	76.812	181.98	515.39	97.407	302.25	573.21	123.83	249.82	-23.897	1551.7	347.35	-121.62	1240.7	349.27
275	1.1417	184.42	1232.9	317.31	77.796	1478.8	501.83	56.355	1501.7	171.05	123.62	1803	327.87	124.64	975.45	476.86	147.53	987	208.89	-104.75	1028.3	356.55	-95.986	1021.5	253.99	26.572	930.32	545.98	59.27	939.51	117.95	34.455	1074	535.37	39.826	1067.1	124.81	-113.25	988.15	302.43	-82.913	651.58	512.45	-37.591	561.41	492.35	-106.18	567.24	493.96	-10.005	646.5	511.94	-118.46	498.4	489.74	-90.77	495	345.82	-256.31	397.09	497.33	-248.38	292.88	461.17	-297.98	340.94	483.69	-209.59	353.12	480.29	-408.03	160.1	442.77	-368.26	158.14	352.81	-479	165.68	378.98	-475.17	137.01	346.35	-484.51	130.49	410.23	-326.62	36.219	471.11	-289.11	43.762	348.5	-224.28	44.293	403.63	138.06	660.17	150.64	242.97	629.14	157.28	181.03	583.22	174.55	190.17	705.28	132.84	265.25	528.85	170.28	271.94	541.57	312.14	261.55	382.88	152.4	346.01	316.65	182.03	286.25	309.05	157.92	323	389.62	172.97	339.64	102.57	193.84	359.32	120.35	292.6	276.63	60.91	242.34	294.13	40.149	276.79	291.67	37.463	213.49	495.27	73.649	182.1	517.22	93.886	302.36	575.67	119.15	250.04	-17.602	1551.8	345.93	-115.17	1240.7	348.42
276	1.1458	190.97	1233.1	316.4	84.198	1479.1	500.55	62.789	1501.6	169.72	129.59	1803.1	326.14	131	975.37	476.3	153.9	987.12	208.44	-98.26	1028.3	356.2	-89.635	1021.7	253.58	33.082	930.11	545.55	65.661	939.73	117.59	41.509	1074.3	534.82	46.412	1067.2	124.2	-106.81	988.21	302	-76.085	651.27	512.6	-30.495	561.12	493.13	-99.101	566.8	494.47	-3.1576	646.36	512.31	-111.32	497.96	490.57	-83.047	493.99	346.77	-250.22	398.23	497.91	-243.53	293.9	462.12	-292.53	342.61	484.4	-204.04	353.67	481.16	-404.62	162.93	443.65	-364.68	160.48	353.86	-475.11	170.27	379.87	-471.89	141.78	346.95	-481.54	134.99	410.79	-326.17	36.719	471.18	-288.69	44.235	348.69	-223.88	44.006	403.64	145.05	660.63	150.23	249.94	629.72	157.11	188.05	583.67	174.17	197.05	705.81	132.66	272.37	529.39	170.22	278.48	542.26	311.92	267.36	383.47	152.04	350.91	316.26	182.04	291.19	309.36	157.62	328.76	389.49	172.99	341.54	102.3	193.63	361.41	119.79	292.44	277.74	61.809	242.07	294.66	40.776	276.59	292.34	37.964	213.36	496.74	70.632	182.15	518.92	90.54	302.4	577.96	114.67	250.18	-11.3	1551.8	344.53	-108.73	1240.7	347.59
277	1.15	197.5	1233.2	315.49	90.623	1479.5	499.27	69.218	1501.5	168.4	135.58	1803.4	324.39	137.34	975.36	475.71	160.24	987.32	207.97	-91.784	1028.4	355.89	-83.329	1021.9	253.21	39.607	929.94	545.11	71.971	940.03	117.23	48.585	1074.7	534.27	52.933	1067.4	123.63	-100.4	988.35	301.62	-69.108	650.93	512.78	-23.2	560.83	493.94	-91.823	566.32	495.04	3.8413	646.25	512.71	-103.93	497.5	491.46	-75.095	492.94	347.78	-243.86	399.37	498.56	-238.44	294.94	463.12	-286.83	344.3	485.16	-198.23	354.21	482.09	-400.99	165.86	444.56	-360.89	162.89	354.93	-470.93	175.03	380.81	-468.35	146.74	347.59	-478.32	139.69	411.38	-325.67	37.315	471.26	-288.18	44.813	348.88	-223.43	43.688	403.65	152.01	661.15	149.77	256.89	630.37	156.87	195.05	584.19	173.73	203.88	706.39	132.43	279.43	529.96	170.1	285.11	543.02	311.63	273.06	384.08	151.64	355.71	315.91	181.99	296.01	309.71	157.28	334.41	389.39	172.94	343.35	102.09	193.41	363.41	119.32	292.23	278.8	62.699	241.8	295.16	41.42	276.37	292.99	38.476	213.21	498.11	67.767	182.15	520.51	87.366	302.4	580.09	110.38	250.26	-4.995	1552	343.13	-102.29	1240.9	346.79
